G04 Layer_Physical_Order=1*
G04 Layer_Color=255*
%FSLAX43Y43*%
%MOMM*%
G71*
G01*
G75*
%ADD10R,0.500X3.300*%
%ADD11R,1.300X3.300*%
%ADD12R,2.000X5.000*%
G04:AMPARAMS|DCode=13|XSize=2mm|YSize=1mm|CornerRadius=0mm|HoleSize=0mm|Usage=FLASHONLY|Rotation=330.000|XOffset=0mm|YOffset=0mm|HoleType=Round|Shape=Round|*
%AMOVALD13*
21,1,1.000,1.000,0.000,0.000,330.0*
1,1,1.000,-0.433,0.250*
1,1,1.000,0.433,-0.250*
%
%ADD13OVALD13*%

G04:AMPARAMS|DCode=14|XSize=2mm|YSize=1mm|CornerRadius=0mm|HoleSize=0mm|Usage=FLASHONLY|Rotation=30.000|XOffset=0mm|YOffset=0mm|HoleType=Round|Shape=Round|*
%AMOVALD14*
21,1,1.000,1.000,0.000,0.000,30.0*
1,1,1.000,-0.433,-0.250*
1,1,1.000,0.433,0.250*
%
%ADD14OVALD14*%

%ADD15R,1.270X1.016*%
%ADD16C,0.300*%
%ADD17C,6.000*%
%ADD18C,2.700*%
%ADD19C,2.000*%
G36*
X8475Y7186D02*
Y3080D01*
X8095Y2700D01*
X7050D01*
Y2450D01*
Y-2675D01*
Y-2700D01*
X7075D01*
X7872Y-3497D01*
X7857Y-3623D01*
X7834Y-3638D01*
X7445Y-3970D01*
X7113Y-4359D01*
X6845Y-4795D01*
X6650Y-5268D01*
X6530Y-5765D01*
X6490Y-6275D01*
X6521Y-6672D01*
X6406Y-6725D01*
X3490Y-3809D01*
Y-1690D01*
Y1890D01*
X3471Y1987D01*
X3415Y2070D01*
X1650Y3835D01*
Y3795D01*
X1150D01*
Y7095D01*
X1288D01*
Y7408D01*
X1385Y7427D01*
X1468Y7482D01*
X4793Y10807D01*
X4848Y10813D01*
X8475Y7186D01*
D02*
G37*
G36*
X650Y3607D02*
X950D01*
Y3595D01*
X1130D01*
X1150Y3591D01*
X1290D01*
X1342Y3528D01*
X1362Y3430D01*
X1417Y3347D01*
X2980Y1784D01*
Y-1690D01*
Y-3784D01*
X1095Y-5670D01*
X1040Y-5752D01*
X1030Y-5800D01*
X650D01*
Y-6175D01*
X-650D01*
Y-5800D01*
X-1030D01*
X-1040Y-5752D01*
X-1095Y-5670D01*
X-2970Y-3794D01*
Y1794D01*
X-1417Y3347D01*
X-1362Y3430D01*
X-1342Y3528D01*
X-1290Y3591D01*
X-1150D01*
X-1130Y3595D01*
X-950D01*
Y3607D01*
X-650D01*
X-650Y4350D01*
X650D01*
X650Y3607D01*
D02*
G37*
G36*
X15168Y3617D02*
X15407Y2415D01*
X15551Y1199D01*
X15599Y-25D01*
X15551Y-1249D01*
X15407Y-2465D01*
X15168Y-3667D01*
X14836Y-4845D01*
X14412Y-5995D01*
X14386Y-6050D01*
X12992D01*
X12970Y-5765D01*
X12850Y-5268D01*
X12655Y-4795D01*
X12387Y-4359D01*
X12055Y-3970D01*
X11666Y-3638D01*
X11230Y-3370D01*
X10757Y-3175D01*
X10260Y-3055D01*
X10225Y-3052D01*
Y3875D01*
X11054D01*
X11134Y3610D01*
X11283Y3332D01*
X11483Y3088D01*
X11727Y2888D01*
X12005Y2740D01*
X12306Y2648D01*
X12620Y2617D01*
X12933Y2648D01*
X13235Y2740D01*
X13513Y2888D01*
X13757Y3088D01*
X13957Y3332D01*
X14105Y3610D01*
X14186Y3875D01*
X15095D01*
X15168Y3617D01*
D02*
G37*
G36*
X650Y-9650D02*
X1020D01*
X1040Y-9748D01*
X1095Y-9830D01*
X5807Y-14543D01*
X5780Y-14667D01*
X4867Y-15004D01*
X3677Y-15339D01*
X3353Y-15404D01*
X3255Y-15323D01*
Y-13275D01*
X3235Y-13177D01*
X3180Y-13095D01*
X3098Y-13040D01*
X3000Y-13020D01*
X-3000D01*
X-3098Y-13040D01*
X-3180Y-13095D01*
X-3235Y-13177D01*
X-3255Y-13275D01*
Y-15323D01*
X-3353Y-15404D01*
X-3677Y-15339D01*
X-4867Y-15004D01*
X-5780Y-14667D01*
X-5807Y-14543D01*
X-1095Y-9830D01*
X-1040Y-9748D01*
X-1020Y-9650D01*
X-650D01*
Y-9250D01*
X650D01*
Y-9650D01*
D02*
G37*
G36*
X-3161Y-4324D02*
X-1455Y-6030D01*
X-1373Y-6085D01*
X-1300Y-6100D01*
X-1150D01*
Y-9400D01*
X-1300D01*
X-1373Y-9415D01*
X-1455Y-9470D01*
X-6280Y-14294D01*
X-7082Y-13924D01*
X-8151Y-13326D01*
X-9169Y-12645D01*
X-9495Y-12388D01*
Y-9515D01*
X-9240Y-9495D01*
X-8743Y-9375D01*
X-8270Y-9180D01*
X-7834Y-8912D01*
X-7445Y-8580D01*
X-7113Y-8191D01*
X-7036Y-8066D01*
X-7020Y-8055D01*
X-3289Y-4324D01*
X-3161D01*
D02*
G37*
G36*
X7017Y-8058D02*
X7040Y-8072D01*
X7113Y-8191D01*
X7445Y-8580D01*
X7834Y-8912D01*
X8270Y-9180D01*
X8743Y-9375D01*
X9240Y-9495D01*
X9495Y-9515D01*
Y-12388D01*
X9169Y-12645D01*
X8151Y-13326D01*
X7082Y-13924D01*
X6280Y-14294D01*
X1455Y-9470D01*
X1373Y-9415D01*
X1300Y-9400D01*
X1150D01*
Y-6100D01*
X1300D01*
X1373Y-6085D01*
X1455Y-6030D01*
X3223Y-4263D01*
X7017Y-8058D01*
D02*
G37*
G36*
X1236Y15676D02*
X2464Y15531D01*
X3677Y15289D01*
X4867Y14954D01*
X6027Y14526D01*
X7150Y14008D01*
X7679Y13712D01*
X7713Y13589D01*
X6997Y12327D01*
X6076Y10737D01*
X5950Y10720D01*
X3518Y13152D01*
X3457Y13193D01*
X3400Y13250D01*
X3300D01*
X3266Y13257D01*
X-3250D01*
X-3284Y13250D01*
X-3400D01*
X-3488Y13162D01*
X-3502Y13152D01*
X-5780Y10875D01*
X-6153D01*
X-7712Y13590D01*
X-7678Y13712D01*
X-7150Y14008D01*
X-6027Y14526D01*
X-4867Y14954D01*
X-3677Y15289D01*
X-2464Y15531D01*
X-1236Y15676D01*
X0Y15724D01*
X1236Y15676D01*
D02*
G37*
G36*
X4438Y11223D02*
X4432Y11168D01*
X1107Y7843D01*
X1052Y7760D01*
X1033Y7662D01*
X1022Y7650D01*
X650D01*
Y7061D01*
X-650D01*
Y7650D01*
X-1022D01*
X-1033Y7662D01*
X-1052Y7760D01*
X-1107Y7843D01*
X-4370Y11105D01*
X-4380Y11265D01*
X-3102Y12543D01*
X3118D01*
X4438Y11223D01*
D02*
G37*
G36*
X-6434Y10928D02*
X-9502Y7859D01*
X-9580Y7744D01*
X-9607Y7607D01*
Y6499D01*
X-10085D01*
Y5105D01*
X-10087Y5105D01*
X-10202Y5027D01*
X-10627Y4602D01*
X-10696Y4500D01*
X-11043D01*
X-11048Y4556D01*
X-11140Y4857D01*
X-11288Y5135D01*
X-11488Y5379D01*
X-11732Y5579D01*
X-12010Y5728D01*
X-12311Y5819D01*
X-12625Y5850D01*
X-12939Y5819D01*
X-13240Y5728D01*
X-13518Y5579D01*
X-13762Y5379D01*
X-13962Y5135D01*
X-14110Y4857D01*
X-14202Y4556D01*
X-14207Y4500D01*
X-14970D01*
X-15046Y4601D01*
X-14979Y4842D01*
X-14551Y6002D01*
X-14033Y7125D01*
X-13429Y8204D01*
X-12742Y9232D01*
X-11976Y10203D01*
X-11137Y11112D01*
X-10228Y11951D01*
X-9257Y12717D01*
X-8229Y13404D01*
X-7948Y13561D01*
X-6434Y10928D01*
D02*
G37*
G36*
X-10225Y-3052D02*
X-10260Y-3055D01*
X-10757Y-3175D01*
X-11230Y-3370D01*
X-11666Y-3638D01*
X-12055Y-3970D01*
X-12387Y-4359D01*
X-12655Y-4795D01*
X-12850Y-5268D01*
X-12970Y-5765D01*
X-12992Y-6050D01*
X-14386D01*
X-14412Y-5995D01*
X-14836Y-4845D01*
X-15168Y-3667D01*
X-15407Y-2465D01*
X-15551Y-1249D01*
X-15599Y-25D01*
X-15551Y1199D01*
X-15407Y2415D01*
X-15168Y3617D01*
X-15119Y3792D01*
X-15025Y3800D01*
X-14163D01*
X-14110Y3627D01*
X-13962Y3349D01*
X-13762Y3105D01*
X-13518Y2905D01*
X-13240Y2757D01*
X-12939Y2665D01*
X-12625Y2634D01*
X-12311Y2665D01*
X-12010Y2757D01*
X-11732Y2905D01*
X-11488Y3105D01*
X-11288Y3349D01*
X-11140Y3627D01*
X-11087Y3800D01*
X-10225D01*
Y-3052D01*
D02*
G37*
G36*
X-4730Y10745D02*
X-1468Y7482D01*
X-1385Y7427D01*
X-1288Y7408D01*
X-1275Y7397D01*
Y7095D01*
X-1150D01*
Y3795D01*
X-1650D01*
Y3835D01*
X-3405Y2080D01*
X-3460Y1998D01*
X-3480Y1900D01*
Y-3794D01*
X-6397Y-6711D01*
X-6520Y-6655D01*
X-6490Y-6275D01*
X-6530Y-5765D01*
X-6650Y-5268D01*
X-6845Y-4795D01*
X-7113Y-4359D01*
X-7445Y-3970D01*
X-7834Y-3638D01*
X-7873Y-3614D01*
X-7888Y-3488D01*
X-7100Y-2700D01*
X-7050D01*
Y2700D01*
Y2775D01*
X-8475D01*
Y3051D01*
X-8415D01*
Y4430D01*
X-8338Y4445D01*
X-8223Y4523D01*
X-7698Y5048D01*
X-7620Y5163D01*
X-7593Y5300D01*
Y8052D01*
X-4890Y10755D01*
X-4730Y10745D01*
D02*
G37*
G36*
X8229Y13404D02*
X9257Y12717D01*
X10228Y11951D01*
X11137Y11112D01*
X11976Y10203D01*
X12742Y9232D01*
X13429Y8204D01*
X14033Y7125D01*
X14551Y6002D01*
X14979Y4842D01*
X15054Y4576D01*
X14977Y4475D01*
X14203D01*
X14197Y4539D01*
X14105Y4840D01*
X13957Y5118D01*
X13757Y5362D01*
X13513Y5562D01*
X13235Y5710D01*
X12933Y5802D01*
X12620Y5833D01*
X12306Y5802D01*
X12005Y5710D01*
X11727Y5562D01*
X11483Y5362D01*
X11283Y5118D01*
X11134Y4840D01*
X11043Y4539D01*
X11037Y4475D01*
X10857D01*
Y6373D01*
X10830Y6509D01*
X10752Y6625D01*
X6443Y10935D01*
X7175Y12226D01*
D01*
X7890Y13489D01*
X7890D01*
D01*
X8077Y13489D01*
X8229Y13404D01*
D02*
G37*
%LPC*%
G36*
X4300Y-6489D02*
X3974Y-6532D01*
X3670Y-6658D01*
X3408Y-6858D01*
X3208Y-7120D01*
X3082Y-7424D01*
X3039Y-7750D01*
X3082Y-8076D01*
X3208Y-8380D01*
X3408Y-8642D01*
X3670Y-8842D01*
X3974Y-8968D01*
X4300Y-9011D01*
X4626Y-8968D01*
X4930Y-8842D01*
X5191Y-8642D01*
X5392Y-8380D01*
X5518Y-8076D01*
X5561Y-7750D01*
X5518Y-7424D01*
X5392Y-7120D01*
X5191Y-6858D01*
X4930Y-6658D01*
X4626Y-6532D01*
X4300Y-6489D01*
D02*
G37*
G36*
X-4300D02*
X-4626Y-6532D01*
X-4930Y-6658D01*
X-5192Y-6858D01*
X-5392Y-7120D01*
X-5518Y-7424D01*
X-5561Y-7750D01*
X-5518Y-8076D01*
X-5392Y-8380D01*
X-5192Y-8642D01*
X-4930Y-8842D01*
X-4626Y-8968D01*
X-4300Y-9011D01*
X-3974Y-8968D01*
X-3670Y-8842D01*
X-3409Y-8642D01*
X-3208Y-8380D01*
X-3082Y-8076D01*
X-3039Y-7750D01*
X-3082Y-7424D01*
X-3208Y-7120D01*
X-3409Y-6858D01*
X-3670Y-6658D01*
X-3974Y-6532D01*
X-4300Y-6489D01*
D02*
G37*
%LPD*%
D10*
X1400Y5445D02*
D03*
X-1400D02*
D03*
X1400Y-7750D02*
D03*
X-1400D02*
D03*
D11*
X0Y5445D02*
D03*
Y-7750D02*
D03*
D12*
X-11250Y0D02*
D03*
X-8250D02*
D03*
X11250D02*
D03*
X8250D02*
D03*
D13*
X8435Y11530D02*
D03*
X5768Y13070D02*
D03*
D14*
X-8409Y11484D02*
D03*
X-5741Y13024D02*
D03*
D15*
X-9250Y5791D02*
D03*
Y3759D02*
D03*
X9350Y3734D02*
D03*
Y5766D02*
D03*
D16*
X8250Y0D02*
Y2350D01*
X9375Y3475D01*
X-11250Y0D02*
X-10925Y325D01*
X-11250Y0D02*
Y2450D01*
X-8475Y4775D02*
X-7950Y5300D01*
Y8200D01*
X-3250Y12900D01*
X11250Y0D02*
Y2400D01*
X10500Y3150D02*
X11250Y2400D01*
X-9250Y5791D02*
Y7607D01*
X-3457Y13400D01*
X-8250Y0D02*
Y2000D01*
X-9250Y3000D02*
X-8250Y2000D01*
X-9250Y3000D02*
Y3759D01*
X-9950Y4775D02*
X-8475D01*
X-3250Y12900D02*
X3266D01*
X3473Y13400D02*
X10500Y6373D01*
X3266Y12900D02*
X9375Y6791D01*
Y5766D02*
Y6791D01*
X-3457Y13400D02*
X3473D01*
X10500Y3150D02*
Y6373D01*
X-11250Y2450D02*
X-10375Y3325D01*
Y4350D01*
X-9950Y4775D01*
D17*
X9750Y-6275D02*
D03*
X-9750D02*
D03*
D18*
X-12625Y4250D02*
D03*
X12625Y4250D02*
D03*
D19*
X4300Y-7750D02*
D03*
X-4300D02*
D03*
M02*
